<svg xmlns="http://www.w3.org/2000/svg" viewBox="0 0 160 200" preserveAspectRatio="xMidYMin slice" role="presentation">
  <!-- Chest-up coach figure: narrower shoulders than a player, a jacket lapel
       line, no tie detail. Used as a CSS mask so the coach purple tints it. -->
  <g fill="#000">
    <path d="M80 84
             c24 0 43 9 55 25
             c11 16 17 38 19 62
             c1 10 1 19 0 29
             H6
             c-1 -10 -1 -19 0 -29
             c2 -24 8 -46 19 -62
             c12 -16 31 -25 55 -25 Z"/>
    <path d="M68 66 h24 v24 c0 7 -24 7 -24 0 Z"/>
    <ellipse cx="80" cy="42" rx="27" ry="32"/>
  </g>
  <!-- Lapels, carved out of the jacket. -->
  <g fill="#fff" fill-opacity="0">
    <path d="M80 112 l-20 -18 l6 44 Z"/>
    <path d="M80 112 l20 -18 l-6 44 Z"/>
  </g>
</svg>
